<svg width="221" height="222" viewBox="0 0 221 222" fill="none" xmlns="http://www.w3.org/2000/svg">
<path d="M110.5 28.125C135.869 28.125 160.731 30.2614 184.931 34.3683C189.839 35.197 193.375 39.4881 193.375 44.4606V54.0741C193.375 56.7949 192.839 59.4891 191.798 62.0029C190.757 64.5166 189.231 66.8006 187.307 68.7246L137.287 118.744C135.363 120.668 133.837 122.952 132.796 125.466C131.755 127.98 131.219 130.674 131.219 133.395V160.347C131.219 164.196 130.148 167.969 128.125 171.243C126.102 174.517 123.206 177.163 119.764 178.884L89.7812 193.875V133.395C89.7813 130.674 89.2454 127.98 88.2042 125.466C87.163 122.952 85.6369 120.668 83.713 118.744L33.6933 68.7246C31.7694 66.8006 30.2433 64.5166 29.2021 62.0029C28.1609 59.4891 27.625 56.7949 27.625 54.0741V44.4606C27.625 39.4881 31.161 35.197 36.069 34.3683C60.6605 30.2048 85.5585 28.1163 110.5 28.125Z" stroke="#0369A1" stroke-width="7.21088" stroke-linecap="round" stroke-linejoin="round"/>
<path d="M117.441 60.861C116.208 59.6285 114.652 58.7698 112.952 58.3842C111.252 57.9986 109.477 58.1017 107.833 58.6818C106.19 59.2619 104.743 60.2952 103.662 61.6623C102.58 63.0294 101.907 64.6747 101.721 66.4079C101.65 67.0609 101.715 67.7169 101.807 68.3667L103.366 79.2726C103.765 82.0645 103.303 84.9119 102.041 87.4343L101.669 88.1827L106.409 86.6027C107.83 86.1293 109.367 86.1293 110.788 86.6027L112.806 87.2741C113.669 87.5621 114.581 87.6771 115.489 87.6126C116.397 87.5481 117.283 87.3054 118.097 86.8984L120.148 85.8728M99.3589 74.3232H110.908M138.627 74.3232C138.627 77.9633 137.91 81.5678 136.517 84.9308C135.124 88.2938 133.083 91.3495 130.509 93.9235C127.935 96.4974 124.879 98.5392 121.516 99.9322C118.153 101.325 114.549 102.042 110.908 102.042C107.268 102.042 103.664 101.325 100.301 99.9322C96.9378 98.5392 93.8821 96.4974 91.3082 93.9235C88.7342 91.3495 86.6924 88.2938 85.2994 84.9308C83.9064 81.5678 83.1895 77.9633 83.1895 74.3232C83.1895 66.9717 86.1098 59.9213 91.3082 54.7229C96.5065 49.5246 103.557 46.6042 110.908 46.6042C118.26 46.6042 125.31 49.5246 130.509 54.7229C135.707 59.9213 138.627 66.9717 138.627 74.3232Z" stroke="#0369A1" stroke-width="3.14145" stroke-linecap="round" stroke-linejoin="round"/>
</svg>
