<svg width="41" height="14" viewBox="0 0 41 14" fill="none" xmlns="http://www.w3.org/2000/svg">
<g clip-path="url(#clip0_2288_12854)">
<mask id="mask0_2288_12854" style="mask-type:luminance" maskUnits="userSpaceOnUse" x="0" y="0" width="41" height="14">
<path d="M41 0H0V14H41V0Z" fill="white"/>
</mask>
<g mask="url(#mask0_2288_12854)">
<path d="M1.64127 4.98655L0.771429 4.88608C0.237537 4.80525 0 4.6632 0 4.17933V3.93681C0 3.45294 0.316716 3.27048 0.790658 3.27048H1.64127V0.807226C1.64127 0.322197 1.95798 0 2.43306 0H3.14454C3.61961 0 3.93633 0.322197 3.93633 0.807226V3.27048H5.51877C5.99272 3.27048 6.30943 3.4922 6.30943 3.97608V4.25901C6.30943 4.74404 5.99272 4.9854 5.51877 4.9854H3.93633V10.539C3.93633 11.5691 4.43063 11.9929 5.20206 11.9929C5.49841 11.9929 5.75518 11.9721 5.97349 11.9317C6.40784 11.8509 6.72456 11.9513 6.80374 12.4364L6.90327 12.9618C7.00281 13.426 6.76528 13.769 6.2902 13.8707C5.99272 13.9319 5.538 13.9919 5.08329 13.9919C2.86854 13.9919 1.6424 12.7805 1.6424 10.8011V4.98655H1.64127Z" fill="white"/>
<path d="M6.68066 7.34931C6.68066 5.08815 8.20429 3.0083 10.893 3.0083C13.5817 3.0083 15.1245 5.18977 15.1245 7.34931V8.70277C15.1245 8.96491 14.9073 9.18664 14.6709 9.18664H8.97459V9.65088C8.97459 10.6406 9.31053 11.994 11.1701 11.994C12.1191 11.994 12.8905 11.7919 13.3656 11.6903C13.8599 11.5691 14.2162 11.6903 14.3542 12.195L14.4334 12.5784C14.5522 13.0218 14.3735 13.4064 13.8791 13.5473C13.3848 13.709 12.3171 13.9907 11.1701 13.9907C8.0448 13.9907 6.68066 11.8508 6.68066 9.64973V7.34815V7.34931ZM12.8317 7.53061V7.18763C12.8317 6.1171 12.3578 5.00616 10.9133 5.00616C9.46889 5.00616 8.97572 6.13673 8.97572 7.18763V7.53061H12.8317Z" fill="white"/>
<path d="M30.7339 7.49019H31.9204V7.02595C31.9204 5.71407 31.4861 5.00731 30.0812 5.00731C29.0327 5.00731 28.3212 5.20941 28.0441 5.29024C27.5498 5.4115 27.2127 5.22904 27.095 4.7648L26.9955 4.38139C26.8575 3.85595 27.1335 3.51296 27.5893 3.3917C28.0237 3.25082 28.8947 3.0083 30.0812 3.0083C32.8095 3.0083 34.2144 4.64469 34.2144 6.88506V12.9237C34.2144 13.4075 33.9576 13.7309 33.4825 13.7309H33.0278C32.5539 13.7309 32.2971 13.59 32.2371 13.0646L32.1772 12.7412C31.4861 13.5496 30.6151 13.993 29.5066 13.993C27.4502 13.993 26.1245 12.7412 26.1245 10.6821C26.1245 8.34015 28.1221 7.49135 30.7328 7.49135L30.7339 7.49019ZM29.9036 11.994C30.6343 11.994 31.3865 11.6499 31.9204 11.0655V9.20743H30.8922C29.5473 9.20743 28.4592 9.44994 28.4592 10.681C28.4592 11.4894 28.9331 11.994 29.9025 11.994H29.9036Z" fill="white"/>
<path d="M35.7165 4.98655L34.8467 4.88608C34.3116 4.80525 34.0752 4.6632 34.0752 4.17933V3.93681C34.0752 3.45294 34.392 3.27048 34.8659 3.27048H35.7165V0.807226C35.7165 0.322197 36.0332 0 36.5083 0H37.2198C37.696 0 38.0116 0.322197 38.0116 0.807226V3.27048H39.5951C40.0691 3.27048 40.3858 3.4922 40.3858 3.97608V4.25901C40.3858 4.74404 40.0691 4.9854 39.5951 4.9854H38.0116V10.539C38.0116 11.5691 38.5059 11.9929 39.2773 11.9929C39.5737 11.9929 39.8316 11.9721 40.0487 11.9317C40.4831 11.8509 40.8009 11.9513 40.8801 12.4364L40.9785 12.9618C41.0781 13.426 40.8405 13.769 40.3666 13.8707C40.0691 13.9319 39.6144 13.9919 39.1585 13.9919C36.9438 13.9919 35.7176 12.7805 35.7176 10.8011V4.98655H35.7165Z" fill="white"/>
<path d="M15.8408 4.118C15.8408 3.44341 16.3686 2.89655 17.0196 2.89655C17.6707 2.89655 18.1985 3.44341 18.1985 4.118V12.7785C18.1985 13.4531 17.6707 14 17.0196 14C16.3686 14 15.8408 13.4531 15.8408 12.7785V4.118Z" fill="white"/>
<path d="M23.1943 7.2878C23.1943 6.61109 23.7237 6.0625 24.3768 6.0625C25.0299 6.0625 25.5594 6.61109 25.5594 7.2878V12.7824C25.5594 13.4591 25.0299 14.0077 24.3768 14.0077C23.7237 14.0077 23.1943 13.4591 23.1943 12.7824V7.2878Z" fill="white"/>
<path d="M20.3175 3.54515C20.8284 3.19357 21.4656 3.36898 21.7407 3.93693C22.0157 4.50488 21.8246 5.2503 21.3137 5.60188L17.6212 8.14305C17.1103 8.49462 16.4731 8.31922 16.198 7.75127C15.9229 7.18331 16.1141 6.43789 16.625 6.08632L20.3175 3.54515Z" fill="white"/>
<path d="M20.3714 5.7069C19.849 5.31543 19.6763 4.52292 19.9856 3.93679C20.2949 3.35066 20.9692 3.19287 21.4916 3.58435L25.0091 6.22016C25.5315 6.61164 25.7043 7.40414 25.3949 7.99027C25.0856 8.5764 24.4113 8.73419 23.8889 8.34272L20.3714 5.7069Z" fill="white"/>
</g>
</g>
<defs>
<clipPath id="clip0_2288_12854">
<rect width="41" height="14" fill="white"/>
</clipPath>
</defs>
</svg>
