<svg width="723" height="157" viewBox="0 0 723 157" fill="none" xmlns="http://www.w3.org/2000/svg">
<g clip-path="url(#clip0_11_3)">
<path d="M73.03 126C73.03 146.84 59.55 156.09 33.38 156.09C12.07 156.09 0 149.35 0 136.19C0 129.29 3.61 121.77 12.38 117.38C6.43 115.97 1.57 111.11 1.57 103.75C1.57 97.17 5.17 90.27 12.38 86.2C7.68 82.28 5.8 76.17 5.8 67.4C5.8 47.81 15.99 40.91 35.42 40.91C39.5 40.91 42.94 41.22 45.92 41.69C45.92 31.66 48.9 28.37 62.38 28.37C69.9 28.37 69.9 32.45 69.9 39.18C61.12 37.14 55.95 35.89 52.97 35.89C49.68 35.89 49.21 37.92 49.21 42.47C59.39 45.45 63 52.81 63 65.19C63 84.78 52.81 91.52 33.38 91.52C25.23 91.52 19.27 90.42 14.89 87.92C11.6 90.9 10.5 93.72 10.5 98.58C10.5 106.89 12.38 108.45 18.65 108.45C31.97 108.45 42.47 108.14 50.94 108.14C63.79 108.14 73.04 111.12 73.04 126.01L73.03 126ZM63 126.63C63 119.73 60.96 118.17 53.44 118.17C42.47 118.17 32.44 118.33 25.39 118.33C21.16 118.33 18.03 118.33 16.46 118.02C11.6 121.62 8.94 125.38 8.94 131.5C8.94 144.2 18.34 149.52 35.43 149.52C54.55 149.52 63.01 141.37 63.01 126.64L63 126.63ZM17.55 65.66C17.55 79.92 22.88 85.25 34.48 85.25C48.43 85.25 51.25 77.42 51.25 67.7C51.25 52.19 45.29 46.7 34.01 46.7C21.78 46.7 17.55 53.44 17.55 65.66Z" fill="#1D1D1B"/>
<path d="M83.53 83.53C83.53 52.97 93.71 40.9 121.14 40.9C147 40.9 155.3 52.34 155.3 79.92C155.3 110.16 145.74 123.49 117.53 123.49C89.32 123.49 83.52 110.17 83.52 83.53H83.53ZM142.92 85.57C142.92 59.87 140.88 47.64 118.16 47.64C98.41 47.64 95.75 57.05 95.75 77.89C95.75 109.7 101.24 116.75 119.73 116.75C140.89 116.75 142.92 105.78 142.92 85.56V85.57Z" fill="#1D1D1B"/>
<path d="M169.41 83.53C169.41 52.97 179.6 40.9 207.02 40.9C232.88 40.9 241.18 52.34 241.18 79.92C241.18 110.16 231.62 123.49 203.41 123.49C175.2 123.49 169.4 110.17 169.4 83.53H169.41ZM228.81 85.57C228.81 59.87 226.77 47.64 204.05 47.64C184.3 47.64 181.64 57.05 181.64 77.89C181.64 109.7 187.13 116.75 205.62 116.75C226.78 116.75 228.81 105.78 228.81 85.56V85.57Z" fill="#1D1D1B"/>
<path d="M334.9 115.19C334.9 120.68 327.85 122.71 316.72 122.71C313.43 122.71 311.86 121.14 311.55 117.54C311.39 116.13 311.39 114.56 311.55 112.37H310.92C305.28 118.32 294.62 123.5 283.65 123.5C264.37 123.5 255.28 110.02 255.28 84.48C255.28 56.11 267.35 40.91 291.8 40.91C299.16 40.91 305.28 42.48 310.6 45.45V9.71998L297.28 8.61998C297.28 3.12998 304.33 1.09998 315.3 1.09998C320.16 1.09998 321.41 2.03998 321.41 10.03L321.57 114.09L334.89 115.19H334.9ZM289.61 114.87C296.04 114.87 304.19 112.99 310.61 110.48V66.76C310.61 52.5 304.81 47.64 290.55 47.64C273.62 47.64 266.73 55.32 266.73 80.71C266.73 106.1 273.31 114.87 289.61 114.87Z" fill="#1D1D1B"/>
<path d="M343.68 108.29C343.68 101.71 349.48 97.48 355.43 97.48C361.38 110.17 363.42 116.13 371.41 116.13C380.5 116.13 384.11 110.49 384.11 102.49C384.11 94.49 380.98 91.83 369.07 85.25C356.84 78.35 347.76 73.97 347.76 61.27C347.76 48.57 358.1 37.6 379.26 37.6C390.7 37.6 402.93 41.05 402.93 50.3C402.93 56.57 397.6 60.64 390.55 60.64C383.03 46.38 381.46 44.66 377.39 44.66C369.87 44.66 365.32 48.58 365.32 56.1C365.32 64.09 370.18 66.44 379.43 71.93C394 80.55 402.47 83.53 402.47 98.41C402.47 116.43 388.52 123.49 369.56 123.49C355.3 123.49 343.7 119.41 343.7 108.29H343.68Z" fill="#1D1D1B"/>
<path d="M471.56 109.39C471.56 103.59 475.01 59.09 475.01 55.48C475.01 51.25 474.07 50.47 471.56 50.47C466.39 50.47 463.57 53.45 445.7 71.94L442.41 121.15H423.61L430.35 11.45L419.54 6.91001C420.64 2.68001 429.26 0.0100098 437.09 0.0100098C445.4 0.0100098 449.47 3.30001 448.84 11.76L446.49 48.12L444.45 66.77H445.39C451.66 54.54 460.75 37.62 479.71 37.62C491.15 37.62 493.66 44.83 493.66 55.8C493.66 59.72 493.03 69.59 490.21 111.43L501.18 115.97C499.77 120.67 490.52 122.87 482.22 122.87C473.92 122.87 471.56 118.17 471.56 109.39Z" fill="#1D1D1B"/>
<path d="M551.01 115.81C549.76 120.51 540.51 122.86 531.89 122.86C524.21 122.86 520.92 119.26 521.55 110.48L525 49.99L514.03 45.45C515.13 41.06 524.69 38.4 532.99 38.4C540.67 38.4 543.96 42.48 543.49 50.62L540.04 111.27L551.01 115.82V115.81ZM524.22 11.75C524.22 3.28997 529.23 1.40997 535.5 1.40997C544.12 1.40997 546.32 5.32997 546.32 11.44C546.32 19.59 541.15 21.47 535.19 21.47C526.41 21.47 524.22 17.24 524.22 11.75Z" fill="#1D1D1B"/>
<path d="M568.72 145.43L574.99 49.83L564.02 45.29C565.27 40.27 575.46 38.24 582.36 38.24C589.72 38.24 592.86 42.47 592.86 49.52C592.86 52.65 592.39 57.04 591.45 66.6H592.71C598.66 54.53 607.6 37.61 624.52 37.61C638.15 37.61 642.7 46.54 642.7 66.76C642.7 100.3 628.75 123.49 601.95 123.49C597.72 123.49 593.96 122.71 589.1 121.14L587.38 145.59C595.53 147.31 599.61 150.13 599.61 154.52H556.98C557.14 149.19 558.55 147.15 568.73 145.43H568.72ZM616.68 103.43C620.28 96.22 623.11 78.83 623.11 65.19C623.11 53.12 621.23 50.46 616.84 50.46C612.92 50.46 609.63 54.06 592.71 71.93L589.89 111.42C592.71 112.99 598.04 115.81 602.27 115.81C608.23 115.81 613.09 111.11 616.69 103.43H616.68Z" fill="#1D1D1B"/>
<path d="M660.87 35.89C660.87 32.6 664.16 28.52 666.67 26.02C669.49 29.15 671.53 33.7 675.76 36.05C678.58 37.62 682.81 38.24 686.73 39.03L685.63 42.48C683.12 43.42 679.68 43.73 676.07 43.73C668.39 43.73 660.87 41.38 660.87 35.9V35.89ZM664.63 56.1C668.39 55.16 672.46 55 675.91 53.43C679.99 52.02 683.12 47.79 686.1 44.66L688.45 47.64C686.73 54.38 679.67 66.92 672.93 66.92C668.39 66.92 666.19 60.81 664.62 56.11L664.63 56.1ZM679.52 17.24C679.52 13.63 681.56 11.13 687.2 11.13C689.08 11.13 691.28 11.44 693.78 12.07C692.52 15.99 689.7 20.38 689.7 25.39C689.7 28.68 691.11 32.75 692.21 36.52L688.92 37.15C684.53 33.07 679.52 23.67 679.52 17.25V17.24ZM689.55 72.72C690.65 68.8 693.63 64.41 693.63 59.09C693.63 55.64 692.06 51.88 690.96 48.27L694.41 47.64C698.64 51.72 703.81 60.96 703.81 67.39C703.81 71.15 701.93 73.81 696.13 73.81C694.25 73.81 692.05 73.34 689.55 72.71V72.72ZM694.56 37.14C696.28 30.4 703.34 17.86 710.08 17.86C714.47 17.86 716.66 23.5 718.39 28.68C714.63 29.62 710.71 29.78 707.42 31.34C703.19 32.6 700.06 36.67 696.92 39.96L694.57 37.14H694.56ZM707.26 48.89C704.44 47.32 700.36 46.7 696.45 45.91L697.55 42.47C700.06 41.53 703.5 41.21 707.11 41.21C714.63 41.21 722.31 43.56 722.31 48.89C722.31 52.34 719.02 56.41 716.51 58.92C713.69 55.79 711.65 51.24 707.26 48.89Z" fill="#1D1D1B"/>
</g>
<defs>
<clipPath id="clip0_11_3">
<rect width="722.3" height="156.09" fill="white"/>
</clipPath>
</defs>
</svg>
