<svg width="300" height="69" viewBox="0 0 300 69" fill="none" xmlns="http://www.w3.org/2000/svg">
<path d="M52.5773 0.929688C45.6057 0.929688 39.9642 9.88497 39.9642 15.836V57.4554C46.9358 57.4554 52.5773 48.5001 52.5773 42.5719V0.929688ZM32.725 16.3138C25.7535 16.3138 20.112 25.2653 20.112 31.1972V57.4554C27.0836 57.4554 32.725 48.5001 32.725 42.5719V16.3138ZM12.8728 30.4328C5.90125 30.4328 0.259766 39.3843 0.259766 45.3162V57.4554C7.23135 57.4554 12.8728 48.5001 12.8728 42.5719V30.4328ZM80.4636 54.1683L72.7047 32.1948C72.503 31.6521 72.3907 31.0803 72.3721 30.5016C72.3769 30.0871 72.4648 29.6778 72.6308 29.2979C72.7967 28.918 73.0372 28.5753 73.3381 28.2901C73.6389 28.005 73.994 27.7831 74.3822 27.6378C74.7704 27.4924 75.1839 27.4265 75.598 27.4439C77.2377 27.4439 78.3309 28.537 78.8239 30.0659L84.4004 47.556L90.0304 30.0659C90.5197 28.537 91.7237 27.4439 93.4169 27.4439H93.7991C95.4923 27.4439 96.6963 28.537 97.1893 30.0659L102.873 47.556L108.503 30.0124C108.939 28.5905 109.978 27.4439 111.729 27.4439C112.135 27.4363 112.539 27.5097 112.916 27.66C113.294 27.8102 113.638 28.0343 113.928 28.319C114.218 28.6037 114.448 28.9433 114.606 29.3181C114.763 29.6928 114.844 30.0952 114.844 30.5016C114.821 31.0038 114.728 31.5003 114.569 31.977L106.699 54.1683C105.988 56.1902 104.623 57.119 103.037 57.119H102.816C101.176 57.119 99.8075 56.1902 99.2074 54.2753L93.5812 37.1139L87.9092 54.2753C87.3091 56.1864 85.9407 57.119 84.3546 57.119H84.1367C82.4855 57.119 81.1172 56.1864 80.4636 54.1683ZM118.123 42.3617V42.2509C118.123 33.9989 124.682 27.1649 133.538 27.1649C142.394 27.1649 148.895 33.888 148.895 42.1439V42.2509C148.895 50.4494 142.336 57.2834 133.427 57.2834C124.628 57.2834 118.123 50.5602 118.123 42.3617ZM142.283 42.3617V42.2509C142.283 37.1674 138.618 32.9592 133.427 32.9592C128.126 32.9592 124.739 37.1139 124.739 42.1324V42.2394C124.739 47.2694 128.397 51.4775 133.53 51.4775C138.893 51.489 142.283 47.3343 142.283 42.3617ZM153.811 30.773C153.802 30.3374 153.88 29.9045 154.041 29.4998C154.203 29.095 154.443 28.7265 154.748 28.416C155.054 28.1055 155.419 27.8592 155.821 27.6916C156.223 27.524 156.654 27.4385 157.09 27.4401C157.529 27.437 157.964 27.5211 158.37 27.6875C158.776 27.8539 159.144 28.0992 159.455 28.4092C159.765 28.7193 160.011 29.0879 160.178 29.4936C160.345 29.8994 160.429 30.3343 160.427 30.773V33.7237C161.956 30.1194 164.799 27.3866 167.689 27.3866C169.764 27.3866 170.964 28.7511 170.964 30.666C170.989 31.4231 170.736 32.1632 170.254 32.7469C169.771 33.3305 169.091 33.7174 168.342 33.8345C163.641 34.6563 160.419 38.2606 160.419 45.0946V53.6218C160.416 54.0564 160.327 54.4862 160.158 54.8864C159.988 55.2867 159.742 55.6496 159.432 55.9542C159.122 56.2589 158.754 56.4994 158.351 56.6619C157.948 56.8244 157.517 56.9057 157.082 56.9012C156.651 56.9047 156.223 56.8223 155.823 56.6588C155.424 56.4952 155.061 56.2538 154.755 55.9486C154.45 55.6434 154.209 55.2804 154.045 54.8809C153.882 54.4814 153.799 54.0534 153.803 53.6218L153.811 30.773Z" fill="#00A7E1"/>
<path d="M243.146 50.0215V49.9145C243.146 43.6806 248.011 40.6228 255.063 40.6228C257.699 40.5961 260.321 41.0015 262.826 41.823V41.1121C262.826 37.0147 260.311 34.8285 255.663 34.8285C253.478 34.7992 251.308 35.1885 249.269 35.9751C248.932 36.0797 248.582 36.135 248.229 36.1395C247.867 36.144 247.507 36.0768 247.17 35.9418C246.833 35.8067 246.527 35.6064 246.268 35.3524C246.009 35.0985 245.803 34.7958 245.661 34.4619C245.52 34.128 245.445 33.7693 245.443 33.4066C245.452 32.8406 245.629 32.29 245.95 31.8236C246.27 31.3572 246.722 30.9958 247.247 30.7847C250.206 29.6267 253.361 29.0505 256.539 29.0876C260.854 29.0876 264.083 30.2343 266.094 32.3135C268.227 34.3889 269.209 37.4505 269.209 41.2229V55.4222C269.212 55.8437 269.131 56.2616 268.969 56.651C268.808 57.0404 268.57 57.3933 268.269 57.6889C267.968 57.9845 267.612 58.2166 267.22 58.3715C266.827 58.5264 266.408 58.601 265.987 58.5907C264.076 58.5907 262.761 57.2797 262.761 55.8044V54.7113C260.793 57.0619 257.792 58.9156 253.359 58.9156C247.958 58.9309 243.146 55.8044 243.146 50.0215ZM262.933 47.9461V45.9777C260.835 45.1977 258.612 44.8091 256.374 44.831C252.109 44.831 249.586 46.6313 249.586 49.6393V49.7501C249.586 52.5365 252.044 54.1227 255.216 54.1227C259.6 54.1227 262.933 51.6 262.933 47.9461ZM282.414 18.5576C278.757 18.5576 275.791 23.255 275.791 26.3701V58.6137C279.448 58.6137 282.414 53.9124 282.414 50.8012V18.5576ZM208.941 64.0029V36.8389L215.569 32.4129V34.2169C217.698 31.2089 220.706 28.8048 225.403 28.8048C232.184 28.8048 238.781 34.1558 238.781 43.7799V43.8908C238.781 53.4461 232.222 58.8659 225.403 58.8659C220.595 58.8659 217.591 56.4618 215.569 53.7825V59.596L208.941 64.0029ZM232.062 43.8908V43.7799C232.062 38.2034 228.289 34.5418 223.81 34.5418C219.33 34.5418 215.401 38.2608 215.401 43.7799V43.8908C215.401 49.41 219.334 53.1251 223.81 53.1251C228.285 53.1251 232.062 49.5743 232.062 43.8908Z" fill="#004876"/>
<path d="M215.596 27.1611C211.774 27.1611 208.689 31.8585 208.689 34.9698V67.2172C212.512 67.2172 215.596 62.516 215.596 59.4047V50.8355L214.855 49.7691L214.977 40.0112L215.596 38.1574V27.1611Z" fill="#004876"/>
<path d="M198.713 50.6598L191.872 41.6931L199.516 34.6412C200.449 33.7659 200.995 32.948 200.995 31.8549C201.009 31.4656 200.944 31.0776 200.804 30.7139C200.665 30.3502 200.454 30.0183 200.183 29.7377C199.913 29.4572 199.589 29.2337 199.231 29.0807C198.873 28.9277 198.488 28.8481 198.098 28.8468C196.951 28.8468 196.13 29.3934 195.254 30.2687L182.848 42.4575V21.1414C182.845 20.7069 182.757 20.2772 182.588 19.877C182.419 19.4768 182.172 19.1139 181.863 18.8091C181.553 18.5044 181.186 18.2639 180.783 18.1013C180.38 17.9388 179.949 17.8575 179.515 17.862C179.083 17.8584 178.655 17.9408 178.256 18.1044C177.856 18.2679 177.493 18.5093 177.188 18.8146C176.883 19.1198 176.641 19.4827 176.478 19.8822C176.314 20.2817 176.232 20.7097 176.235 21.1414V55.04C176.235 55.9168 176.584 56.7578 177.204 57.3778C177.824 57.9978 178.665 58.3461 179.542 58.3461C180.418 58.3461 181.259 57.9978 181.879 57.3778C182.499 56.7578 182.848 55.9168 182.848 55.04V49.9986L187.232 45.8668L194.547 55.5904C196.458 58.0213 200.881 59.745 203.881 57.467L198.713 50.6598Z" fill="#00A7E1"/>
<path d="M293.923 15.041C292.753 15.041 291.61 14.6942 290.637 14.0443C289.665 13.3944 288.907 12.4707 288.459 11.3901C288.012 10.3094 287.895 9.12033 288.124 7.97324C288.352 6.82616 288.916 5.77259 289.743 4.94582C290.57 4.11904 291.624 3.5562 292.771 3.32848C293.919 3.10077 295.108 3.21841 296.188 3.66652C297.268 4.11464 298.192 4.8731 298.841 5.84596C299.49 6.81883 299.836 7.9624 299.835 9.13201C299.833 10.6992 299.21 12.2016 298.101 13.3094C296.993 14.4173 295.49 15.04 293.923 15.041ZM293.923 3.95683C292.896 3.95683 291.893 4.26125 291.039 4.83158C290.185 5.40192 289.52 6.21256 289.127 7.16099C288.734 8.10943 288.632 9.15306 288.832 10.1599C289.032 11.1668 289.526 12.0916 290.252 12.8175C290.978 13.5434 291.903 14.0378 292.91 14.238C293.917 14.4383 294.96 14.3355 295.909 13.9427C296.857 13.5498 297.668 12.8845 298.238 12.031C298.809 11.1774 299.113 10.1739 299.113 9.1473C299.115 8.46453 298.981 7.78817 298.721 7.15689C298.461 6.52562 298.079 5.95182 297.597 5.46832C297.115 4.98482 296.542 4.6011 295.912 4.33913C295.281 4.07715 294.605 3.94204 293.923 3.94154V3.95683Z" fill="#004876"/>
<path d="M292.073 5.50098H293.709C294.37 5.50098 294.879 5.50098 295.307 5.85261C295.524 6.04176 295.695 6.2775 295.809 6.54224C295.922 6.80697 295.974 7.09386 295.96 7.38147C295.96 8.52811 295.307 9.12437 294.08 9.12437H293.923L296.599 12.4458H295.548L293.006 9.12437H292.891V12.4458H292.081L292.073 5.50098ZM292.884 8.52811H293.514C294.607 8.52811 295.142 8.37523 295.142 7.40823C295.142 6.44122 294.615 6.20043 293.514 6.20043H292.884V8.52811Z" fill="#004876"/>
</svg>
